<svg xmlns="http://www.w3.org/2000/svg" width="1000" height="211.332" viewBox="0 0 264.58 55.913968"><path fill="#000000" d="M109.599 44.602h-6.9l-6.729-25.61-6.802 25.61h-7.053l-9.25-33.289h6.258l6.671 26.48 7.283-26.48H99.4l6.846 26.637 6.336-26.637h6.043zm17.87-30.854c0 .9-.331 1.65-.994 2.25-.647.6-1.437.9-2.368.9-.932 0-1.721-.3-2.369-.9-.647-.6-.97-1.35-.97-2.25 0-.915.323-1.681.97-2.297a3.362 3.362 0 0 1 2.369-.924c.963 0 1.76.316 2.392.948.647.631.97 1.39.97 2.273zm-6.242 30.853v-23.99h5.593v23.99zm27.119.001V31.245c0-3.5-1.086-6.519-4.612-6.519-3.507 0-5.73 3.159-5.73 6.353v13.523h-5.472v-23.99h5.471v3.393h.095c1.816-2.811 4.437-3.798 7.863-3.798 2.573 0 4.562.633 5.968 2.276 1.42 1.641 2.044 4.136 2.044 7.483v14.635zm27.471 0v-3.088h-.095c-1.736 2.921-5.282 3.594-7.753 3.594-7.346 0-10.042-5.706-10.042-11.778 0-4.027 1.003-7.247 3.008-9.663 2.021-2.432 4.72-3.484 8.1-3.484 5.26 0 6.687 2.926 6.687 2.926h.095V9.226h5.675v35.377zm.047-13.67c0-2.898-1.862-6.19-5.793-6.19-4.496 0-6.243 3.912-6.243 8.422 0 3.937 1.648 7.51 5.93 7.57 4.199 0 6.072-4.001 6.106-7.31zm34.256 1.57c0 8.309-4.966 12.81-12.425 12.81-8.11 0-12.267-4.855-12.267-12.29 0-8.506 4.981-12.93 12.86-12.93 7.218 0 11.832 4.614 11.832 12.41zm-5.826.189c0-3.697-1.31-7.807-6.315-7.807-4.8 0-6.664 3.572-6.664 7.949 0 4.755 2.24 7.78 6.63 7.78 4.704 0 6.315-3.61 6.349-7.922zm35.844 11.911h-6.172l-4.718-17.362-5.062 17.362h-5.99l-6.98-23.916h5.857l4.558 18.58 5.326-18.58h5.494l4.75 18.532 4.443-18.532h5.367zm24.442-6.678c0 5.341-4.843 7.423-9.699 7.423-3.162 0-6.31-1.218-6.31-1.218v-5.681s2.736 2.385 6.56 2.415c2.62 0 3.801-.827 3.801-2.4.065-1.263-.704-1.959-1.623-2.48-.631-.38-1.618-.845-2.96-1.398-1.579-.679-2.755-1.334-3.529-1.966a6.103 6.103 0 0 1-1.705-2.226c-.363-.852-.631-1.79-.631-2.926 0-4.313 3.597-7.36 9.346-7.36 3.8 0 5.447.931 5.447.931v5.398s-2.7-1.867-5.506-1.884c-2.01 0-3.531.732-3.558 2.389-.014 2.135 2.6 3.176 4.162 3.808 2.274.915 3.937 1.893 4.869 3.014.931 1.12 1.336 2.25 1.336 4.162zM0 0h26.502v26.502H0zm29.41 0h26.502v26.502H29.41zM0 29.412h26.502v26.502H0zm29.41 0h26.502v26.502H29.41z"/></svg>