<svg xmlns="http://www.w3.org/2000/svg" viewBox="0 0 840.384 106.923"><g fill="#000000"><path d="M767.965 14.9v80.157h4.892V14.9h-4.892Zm-366.18 6.574c-6.922 0-12.494 1.594-16.552 4.736-4.077 3.144-6.139 7.418-6.139 12.693s1.697 9.461 5.051 12.461c3.344 2.992 8.364 5.173 14.924 6.489l5.469 1.167c5.4 1.186 9.193 2.558 11.258 4.071 2.059 1.5 3.1 3.665 3.1 6.432 0 3.422-1.269 6.074-3.774 7.878-2.511 1.8-6.158 2.719-10.834 2.719-5.662 0-9.986-1.201-12.856-3.572-2.861-2.364-4.355-5.968-4.445-10.703v-.094h-9.776v.101c.056 7.355 2.468 13.032 7.159 16.862 4.689 3.831 11.326 5.765 19.743 5.765 7.752 0 13.906-1.729 18.302-5.135 4.395-3.413 6.626-8.154 6.626-14.087 0-4.978-1.625-8.989-4.829-11.928-3.195-2.932-8.504-5.204-15.781-6.758l-5.555-1.167c-5.278-1.129-8.944-2.514-10.903-4.114-1.937-1.473-2.923-3.684-2.923-6.569 0-2.829 1.105-5.038 3.282-6.567 2.187-1.541 5.393-2.321 9.538-2.321 5.331 0 9.25.974 11.643 2.898 2.386 1.922 3.746 4.963 4.046 9.049l.01.087h9.686v-.1c-.122-6.282-2.319-11.292-6.536-14.882-4.211-3.591-10.58-5.413-18.931-5.413Zm244.516 0c-6.922 0-12.493 1.594-16.555 4.736-4.071 3.144-6.133 7.418-6.133 12.693s1.7 9.461 5.051 12.461c3.344 2.992 8.366 5.173 14.923 6.489l5.469 1.167c5.403 1.186 9.186 2.558 11.261 4.071 2.056 1.5 3.098 3.665 3.098 6.432 0 3.422-1.27 6.074-3.772 7.878-2.511 1.8-6.161 2.719-10.839 2.719-5.656 0-9.982-1.201-12.849-3.572-2.867-2.364-4.361-5.968-4.448-10.703v-.094h-9.776v.101c.056 7.355 2.467 13.032 7.162 16.862 4.685 3.831 11.326 5.765 19.736 5.765 7.754 0 13.909-1.729 18.304-5.135 4.396-3.413 6.623-8.154 6.623-14.087-.005-4.978-1.626-8.989-4.826-11.928-3.194-2.932-8.507-5.204-15.781-6.758l-5.552-1.167c-5.281-1.129-8.952-2.514-10.903-4.114-1.94-1.473-2.923-3.684-2.923-6.569 0-2.829 1.101-5.038 3.278-6.567 2.187-1.541 5.394-2.321 9.54-2.321 5.331 0 9.25.974 11.638 2.898 2.39 1.922 3.753 4.963 4.049 9.049l.002.087h9.687v-.1c-.122-6.282-2.318-11.292-6.532-14.882-4.214-3.591-10.582-5.413-18.932-5.413Zm166.823 0c-6.921 0-12.492 1.594-16.554 4.736-4.068 3.144-6.136 7.418-6.136 12.693s1.703 9.461 5.051 12.461c3.347 2.992 8.369 5.173 14.926 6.489l5.469 1.167c5.403 1.186 9.186 2.558 11.261 4.071 2.053 1.5 3.098 3.665 3.098 6.432 0 3.422-1.267 6.074-3.772 7.878-2.514 1.8-6.161 2.719-10.839 2.719-5.656 0-9.983-1.201-12.849-3.572-2.867-2.364-4.361-5.968-4.448-10.703v-.094h-9.779v.101c.063 7.355 2.474 13.032 7.163 16.862 4.685 3.831 11.326 5.765 19.74 5.765 7.754 0 13.912-1.729 18.304-5.135 4.398-3.413 6.626-8.154 6.626-14.087 0-4.978-1.629-8.989-4.833-11.928-3.194-2.932-8.504-5.204-15.775-6.758l-5.559-1.167c-5.281-1.129-8.943-2.514-10.899-4.114-1.94-1.473-2.923-3.684-2.923-6.569 0-2.829 1.1-5.038 3.278-6.567 2.187-1.541 5.394-2.321 9.54-2.321 5.327 0 9.249.974 11.642 2.898 2.386 1.922 3.746 4.963 4.043 9.049l.007.087h9.685v-.1c-.121-6.282-2.315-11.292-6.531-14.882-4.215-3.591-10.585-5.413-18.933-5.413Zm-320.682 1.437v64.126h9.783V60.725h18.461c3.666 0 6.354.849 8.004 2.529 1.65 1.681 2.573 4.607 2.751 8.694l.265 6.825c.062 3.712.702 6.483 1.906 8.223l.028.047h10.073l-.081-.147c-1.126-1.897-1.844-4.507-2.14-7.767l-.63-9.97c-.122-3.534-.908-6.406-2.346-8.537-1.395-2.065-3.606-3.572-6.572-4.489 3.275-1.092 5.861-2.958 7.692-5.549 1.884-2.667 2.841-5.996 2.841-9.886 0-5.515-1.99-9.908-5.908-13.052-3.915-3.142-9.346-4.736-16.152-4.736h-27.975Zm-55.511.002v64.13h45.735v-8.812h-35.952V58.485h31.806v-8.18h-31.806V31.722h35.952v-8.809h-45.735Zm114.384 0v64.13h9.782v-64.13h-9.782Zm19.562 0v64.13h45.731v-8.812h-35.952V58.485h31.806v-8.18h-31.806V31.722h35.952v-8.809h-45.731Zm123.995 0 22.31 30.754-24.21 33.376h10.895l18.758-25.863 18.757 25.863h10.896l-24.201-33.376 22.305-30.754h-10.896l-16.858 23.243-16.861-23.243h-10.895Zm-192.647 8.45h17.656c4.027 0 7.159.868 9.312 2.583 2.15 1.713 3.238 4.283 3.238 7.65 0 3.494-1.061 6.214-3.154 8.104-2.095 1.891-5.013 2.85-8.678 2.85h-18.373V31.364ZM277.928 20c-4.829 0-9.23.79-13.078 2.352-3.854 1.563-7.263 3.938-10.135 7.063-2.935 3.183-5.166 6.896-6.634 11.025-1.465 4.132-2.208 8.803-2.208 13.879 0 5.107.743 9.781 2.208 13.9 1.468 4.118 3.698 7.785 6.634 10.912 2.871 3.15 6.281 5.552 10.135 7.127 3.852 1.578 8.249 2.376 13.078 2.376 4.764 0 9.136-.802 12.983-2.376 3.854-1.58 7.297-3.977 10.233-7.132 2.899-3.155 5.109-6.84 6.561-10.958 1.449-4.113 2.184-8.776 2.184-13.854s-.734-9.744-2.182-13.874c-1.451-4.13-3.66-7.842-6.563-11.025-2.937-3.125-6.379-5.505-10.233-7.063C287.064 20.79 282.693 20 277.928 20Zm-152.165 1.465 22.85 31.504-24.796 34.19h11.163l19.216-26.493 19.216 26.493h11.163l-24.799-34.19 22.852-31.504h-11.165l-17.268 23.809-17.271-23.809h-11.163Zm64.055.002v28.06h-8.532l-6.078 8.382h14.611v29.25h30.749c7.031 0 12.508-1.678 16.272-4.992 3.768-3.315 5.681-7.921 5.681-13.687 0-3.559-.962-6.751-2.865-9.486-1.868-2.684-4.658-4.762-8.297-6.171 5.644-3.134 8.5-7.925 8.5-14.242 0-5.094-1.788-9.264-5.313-12.398-3.522-3.127-8.661-4.716-15.263-4.716h-29.465Zm117.694 0 22.852 31.506-24.796 34.188h11.16l19.217-26.492 19.216 26.492h11.163l-24.797-34.188 22.848-31.506h-11.163l-17.27 23.811-17.265-23.811h-11.165Zm-29.587 7.56c6.491 0 11.784 2.28 15.724 6.771 3.883 4.5 5.854 10.732 5.854 18.521s-1.969 13.985-5.854 18.424c-3.884 4.556-9.172 6.866-15.724 6.866s-11.842-2.31-15.726-6.866c-3.946-4.498-5.945-10.703-5.945-18.429 0-7.668 2.001-13.896 5.945-18.516 3.942-4.491 9.232-6.771 15.726-6.771Zm-78.088 1.097h18.804c3.632 0 6.469.831 8.433 2.461 1.958 1.63 2.948 3.928 2.948 6.827 0 3.36-.955 5.911-2.836 7.587-1.889 1.68-4.764 2.528-8.547 2.528h-18.802V30.124Zm0 27.785h20.179c4.12 0 7.252.871 9.306 2.596 2.048 1.72 3.089 4.344 3.089 7.789 0 3.269-1.07 5.815-3.179 7.565-2.115 1.754-5.216 2.646-9.217 2.646h-20.179V57.909ZM53.369 0C42.598 0 33.741 2.959 25.566 7.824a.208.208 0 0 0-.09.264c.046.098.152.116.258.092 10.336-2.236 26.036 6.704 27.525 7.6.034.021.068.042.11.042a.208.208 0 0 0 .115-.042c1.486-.897 17.185-9.837 27.522-7.6.108.024.214.007.256-.092a.195.195 0 0 0-.088-.264C73.001 2.959 64.144 0 53.369 0Zm-35.72 15.057c-.899-.027-1.412.168-1.637.283a.894.894 0 0 0-.236.181C6.033 25.207 0 38.627 0 53.464a53.256 53.256 0 0 0 10.914 32.39c.066.086.189.142.284.086.093-.054.098-.172.064-.276-4.069-12.6 16.731-43.149 27.477-55.955.04-.045.072-.096.072-.154 0-.077-.041-.134-.092-.179-12.211-12.165-18.374-14.237-21.07-14.318Zm71.446 0c-2.696.081-8.858 2.153-21.068 14.317a.238.238 0 0 0-.09.179c0 .059.033.109.07.154 10.744 12.807 31.545 43.355 27.479 55.955-.035.104-.029.222.061.276.095.056.218 0 .285-.086a53.268 53.268 0 0 0 10.912-32.39c0-14.837-6.037-28.256-15.776-37.942a.873.873 0 0 0-.236-.181c-.224-.116-.738-.31-1.637-.283Zm-35.722 27.82c-.062 0-.136.054-.176.086-15.964 12.16-43.294 42.246-34.958 50.743 9.388 8.229 21.68 13.216 35.134 13.216s25.749-4.987 35.134-13.216c8.334-8.497-18.996-38.579-34.96-50.743-.039-.035-.115-.086-.174-.086Z"/></g></svg>