<svg xmlns="http://www.w3.org/2000/svg" width="164" height="28" viewBox="0 0 131.2 22.4"><g style="fill:#107c10;fill-opacity:1;stroke:none"><path d="M1763 3604c-122-15-279-51-378-89-110-41-245-107-245-120 0-8 24-15 63-19 140-16 400-125 635-264 57-34 113-62 123-62 11 0 66 28 122 62 134 81 355 188 457 222 46 15 118 32 161 39 52 7 79 16 79 24 0 29-233 128-395 168-213 53-409 65-622 39zM796 3138c-267-272-412-567-461-945-23-176-17-326 21-518 37-185 122-393 222-540 66-98 77-97 85 8 31 394 337 935 846 1491 44 49 81 95 81 101 0 14-152 162-264 258-150 128-345 247-402 247-22 0-50-23-128-102zM2923 3211c-127-61-298-189-463-348-66-63-120-122-120-130s49-69 109-136c432-481 706-940 791-1324 11-49 20-116 20-150 0-56 2-63 19-63 23 0 114 140 171 265 116 249 157 456 147 742-10 331-100 602-285 862-85 120-272 311-304 311-13 0-51-13-85-29zM1850 2328c-237-206-550-530-728-755-189-238-392-560-392-620 0-19 105-126 200-205 334-276 819-404 1275-337 352 52 672 212 938 468 41 39 47 50 47 86-1 184-362 640-959 1211-162 155-252 234-266 234-12 0-61-35-115-82z" style="fill:#107c10;fill-opacity:1" transform="matrix(.00673 0 0 -.00678 -1.76 24.912)"/></g><path d="m149.613 11.974 12.283 16.655 2.31.002V7.912h-2.308V24.93L149.363 7.9l-2.055-.004v20.72h2.305z" style="fill:#c5c5c5;fill-opacity:1" transform="matrix(.8 0 0 .8 -14.18 -2.735)"/><path d="M94.078 3.21c-4.66 0-7.919 3.565-7.919 8.668 0 5.111 3.258 8.675 7.92 8.675 4.655 0 7.902-3.564 7.902-8.675 0-5.103-3.247-8.668-7.903-8.668m0 15.587c-3.55 0-6.039-2.845-6.039-6.92 0-4.07 2.49-6.915 6.04-6.915 3.545 0 6.018 2.845 6.018 6.916 0 4.074-2.473 6.919-6.019 6.919" style="fill:#c5c5c5;fill-opacity:1"/><path d="M181.304 9.925V7.898h-14.506v20.735h14.649v-2.029h-12.324v-7.666h11.406v-2.029h-11.406V9.925z" style="fill:#c5c5c5;fill-opacity:1" transform="matrix(.8 0 0 .8 -14.18 -2.735)"/><path d="m106.379 7.912 5.93 8.054 5.923-8.054h2.725l-7.27 9.874 7.969 10.864h-2.725l-6.623-8.992-6.62 8.992h-2.728l7.965-10.864-7.273-9.874z" style="fill:#107c10;fill-opacity:1" transform="matrix(.8 0 0 .8 -14.18 -2.735)"/><path d="M51.793 12.121a4.766 4.766 0 0 0-1.087-.692c1.204-.653 1.994-1.888 1.994-3.321 0-1.062-.392-4.513-5.393-4.513H40.57v7.152h-2.245c-.292.38-.952 1.29-1.204 1.665h3.449v7.772h6.737c3.649 0 5.917-1.854 5.917-4.843 0-1.306-.494-2.416-1.431-3.22m-9.36-6.796h4.874c1.32 0 3.529.329 3.529 2.637 0 1.745-1.288 2.785-3.53 2.785h-4.873V5.325zm4.874 13.129h-4.874v-6.04h4.874c1.848 0 4.06.51 4.06 2.891 0 2.738-2.543 3.149-4.06 3.149M61.986 3.21c-4.659 0-7.916 3.566-7.916 8.669 0 5.11 3.257 8.673 7.916 8.673 4.657 0 7.904-3.562 7.904-8.673 0-5.103-3.247-8.668-7.904-8.668m0 15.587c-3.55 0-6.036-2.846-6.036-6.92 0-4.07 2.486-6.914 6.036-6.914 3.545 0 6.02 2.845 6.02 6.915 0 4.073-2.475 6.919-6.02 6.919" style="fill:#107c10;fill-opacity:1"/><path d="m49.31 7.912 7.27 9.873-7.97 10.863h2.73l6.617-8.99 6.621 8.99h2.728l-7.972-10.863 7.274-9.873h-2.725l-5.93 8.056-5.925-8.056z" style="fill:#107c10;fill-opacity:1" transform="matrix(.8 0 0 .8 -14.18 -2.735)"/></svg>