<svg xmlns="http://www.w3.org/2000/svg" xml:space="preserve" x="0px" y="0px" style="enable-background:new 0 0 400 87" viewBox="0 0 400 87"><path d="M330.9 20.4h-5.3V6.3h5.3c3.8 0 7 3.1 7 7s-3.2 7.1-7 7.1m-.3-19.2h-10v24.3h10c6.9 0 12.5-5.5 12.5-12.2s-5.6-12.1-12.5-12.1M34.9 78.7H22.6c-4 0-7.7-1.6-10.5-4.4-2.8-2.8-4.4-6.5-4.4-10.5V22.6c0-4 1.6-7.7 4.4-10.5 2.8-2.8 6.5-4.3 10.5-4.3h12.3v70.9zM41.1 1H22.6C10.7 1 1 10.7 1 22.6v41.2c0 12 9.7 21.6 21.6 21.6h18.5c.3 0 .7-.3.7-.6V1.6c0-.3-.3-.6-.7-.6M300 25.5V1.2h-4.9v15.9L283.2 1.2h-4.9v24.3h4.9V9.2l12 16.3h4.8zm-58.7 22.1H256v36.1h9.8V47.6h14.4v-9.7h-38.9v9.7zm70.7-1c5.2 0 10 2.7 12.6 7.1l7.4-6.5c-4.5-6.8-12.1-10.8-20.3-10.8-13.4 0-24.4 10.9-24.4 24.4s11 24.5 24.4 24.5c8.2 0 15.8-4 20.3-10.8l-7.4-6.5c-2.6 4.3-7.4 7.1-12.6 7.1-8 0-14.5-6.4-14.5-14.3 0-7.8 6.5-14.2 14.5-14.2m85.1 31.2-1.5 4.3-1.5-4.3h-1.6v5.8h1.1v-4.5l1.5 4.5h1l1.6-4.5v4.5h1v-5.8h-1.6zM386.7 79h1.9v4.7h1.2V79h1.8v-1.2h-4.9V79zm-13.3-23.1H352v-18h-9.5v45.8h9.5V65.4h21.4v18.3h9.5V37.9h-9.5v18zm-1.7-35c-4.1 0-7.5-3.4-7.5-7.6 0-4.2 3.4-7.5 7.5-7.5 4.2 0 7.6 3.3 7.6 7.5s-3.4 7.6-7.6 7.6m0-20.5c-7.1 0-12.9 5.8-12.9 12.9 0 7.2 5.8 13 12.9 13 7.2 0 13-5.8 13-13 0-7.1-5.8-12.9-13-12.9M258.1 21h-13.9v-5.7h12.9v-4.4h-12.9V5.6h13.9V1.2h-18.9v24.3l18.9-.1V21zm-244 5.3c0 4.4 3.6 8 8 8s8-3.6 8-8-3.6-8-8-8-8 3.7-8 8m103.2 29.6h-.3c-5.6-1-10.4-1.9-10.8-5.1-.1-.6-.1-1.6.8-2.6 1.5-1.8 5-2.7 10.3-2.7 5.9 0 11.9 2.3 14 3.2l3.3-7.9c-2.3-1-9.7-3.6-17.8-3.6-9.9 0-20.4 4.9-20.4 13.8 0 7.3 5.1 11 18.3 13.2 9.2 1.6 14.3 2.5 14.2 6.5-.1 2.2-1.8 5.9-12.2 5.9-8.4 0-14.4-3.1-16.4-4.3L96 80.1c2.3 1.2 10 4.9 20 4.9 14.6 0 22.3-5.1 22.3-14.7 0-6.8-3.5-11.3-21-14.4M102.9 9.2 115 25.5h4.8V1.2h-4.9v15.9l-12-15.9H98v24.3h4.9V9.2zm40.6-8h-5.4v24.3h5.4V1.2zM66.9 38.9c4.7 0 8.5 3.8 8.5 8.5S71.6 56 66.9 56s-8.6-3.8-8.6-8.6c.1-4.6 3.9-8.5 8.6-8.5M50.8 85.5h13c12 0 21.6-9.7 21.6-21.6V22.6c0-12-9.7-21.6-21.6-21.6h-13c-.3 0-.6.2-.6.5v83.4c0 .3.3.6.6.6m139-14.4-9.7-33.2h-8.2L162.3 71l-8.8-33.1h-10l13 45.8h11l8.5-30.2 8.5 30.2h11.1l13-45.8h-10l-8.8 33.2zm31.7-69.9h-20.6v5.1h7.8v19.2h5.2V6.3h7.6V1.2zm-54.8 8 12.1 16.3h4.8V1.2h-4.9v15.9l-12-15.9h-4.9v24.3h4.9V9.2zM220 83.7h10.2V37.9H220v45.8z" class="st0" style="fill:#000000"/></svg>