<svg xmlns="http://www.w3.org/2000/svg" xml:space="preserve" x="0px" y="0px" style="enable-background:new 0 0 682.3 121.7" viewBox="0 0 682.3 121.7"><path fill="#000000" d="M623.1 83.2 610.6 96c9 10.3 22.2 15.4 37.1 15.4 19.7 0 34.6-9.7 34.6-25.7 0-14.9-10.5-23-27.2-24.7l-9.3-.9c-7.6-.7-12.7-3.3-12.7-7.8 0-4.8 5.1-7.5 13.8-7.5 9.4 0 16.5 3.9 21.1 9.6l12.4-12.7c-7.6-9.2-19.4-13.5-32.6-13.5-20.6 0-33.6 10.3-33.6 25.2 0 13.7 9.9 22.7 27.6 24.4l9.4.9c7.6.7 11.7 3.5 11.7 8 0 5.5-6.3 8.2-14.4 8.2-10.1-.1-19.1-4.4-25.4-11.7zM576.2 110h19.4V29.3h-20.1v46.4c0 10.6-7.5 17.5-17.3 17.5-9.6 0-16.1-7.2-16.1-17.5V29.3H522v49.5c0 19.7 14.8 32.3 31.5 32.3 9.4 0 17.6-4.4 22.7-9.9v8.8zM499.6 0h-20.1v110h20.1V0zM437 110h19.4V29.3h-20.1v46.4c0 10.6-7.5 17.5-17.3 17.5-9.6 0-16.1-7.2-16.1-17.5V29.3h-20.1v49.5c0 19.7 14.8 32.3 31.5 32.3 9.4 0 17.6-4.4 22.7-9.9v8.8zm-81.6-25c-3.9 4.5-9.6 7.6-17.2 7.6-13.4 0-21.9-9.7-21.9-22.8 0-13.4 8.6-23.1 21.9-23.1 7.5 0 13.2 3.1 17.2 8l13.8-13.8c-7.2-7.8-18-12.8-30.8-12.8-24.3 0-42.2 17.9-42.2 41.7 0 23.8 17.9 41.7 42.2 41.7 12.7 0 23.5-4.9 30.8-12.7L355.4 85zm-114.2 7.6c-13.4 0-22.1-9.7-22.1-22.8 0-13.4 8.7-23.1 22.1-23.1 13.4 0 22.1 9.7 22.1 23.1 0 13.1-8.7 22.8-22.1 22.8zm0 18.8c24.3 0 42.2-17.9 42.2-41.7 0-23.8-17.9-41.7-42.2-41.7-24.3 0-42.2 17.8-42.2 41.7 0 23.8 17.9 41.7 42.2 41.7zM137.8 38.7c-5.4-4.3-11.7-7.4-18.5-9.1-3.9-.9-7.8-1.4-11.8-1.5-3-.1-5.9-.1-8.9-.1h-42c-3 0-5.9 0-8.9.1-4 .1-7.9.6-11.8 1.5-6.8 1.6-13.1 4.7-18.5 9.1C12 43 7.6 48.5 4.6 54.8 1.6 61.1 0 67.9 0 74.9c0 7 1.6 13.8 4.6 20.1 3 6.3 7.4 11.8 12.8 16.1 5.4 4.3 11.7 7.4 18.5 9.1 3.9.9 7.8 1.4 11.8 1.5 3 .1 5.9.1 8.9.1h42c3 0 5.9 0 8.9-.1 4-.1 7.9-.6 11.8-1.5 6.8-1.6 13.1-4.7 18.5-9.1 5.4-4.3 9.8-9.9 12.8-16.1 3-6.3 4.6-13.1 4.6-20.1 0-7-1.6-13.8-4.6-20.1-3-6.3-7.4-11.8-12.8-16.1zm-20.5 48.8c-2.1 1.4-4.4 2.3-6.9 2.7-2.5.4-4.9.3-7.4.3H52.1c-2.5 0-4.9.1-7.4-.3s-4.8-1.3-6.9-2.7c-2-1.4-3.7-3.3-4.9-5.5-1.2-2.2-1.8-4.6-1.8-7.1s.6-4.9 1.8-7.1c1.2-2.2 2.8-4.1 4.9-5.5 2.1-1.4 4.4-2.3 6.9-2.7 2.5-.4 4.9-.3 7.4-.3H103c2.5 0 4.9-.1 7.4.3s4.8 1.3 6.9 2.7c2 1.4 3.7 3.3 4.9 5.5 1.2 2.2 1.8 4.6 1.8 7.1s-.6 4.9-1.8 7.1c-1.2 2.2-2.8 4.1-4.9 5.5z"/></svg>